<svg>
    <symbol id="facebook" xmlns="http://www.w3.org/2000/svg" x="0px" y="0px" width="62" height="62"
        viewBox="0 0 48 48">
        <path
            d="M44,24H4c0,0.338,0,1.662,0,2c0,11.028,8.972,20,20,20s20-8.972,20-20C44,25.662,44,24.338,44,24z"></path>
        <circle cx="24" cy="24" r="19" fill="#fff"></circle>
        <path
            d="M24,44C12.972,44,4,35.028,4,24S12.972,4,24,4s20,8.972,20,20S35.028,44,24,44z M24,6C14.075,6,6,14.075,6,24	s8.075,18,18,18s18-8.075,18-18S33.925,6,24,6z"></path>
        <path
            d="M26.573,29.038h4.921l0.765-4.993h-5.686V21.31c0-2.078,0.675-3.913,2.618-3.913h3.122v-4.363	c-0.549-0.072-1.709-0.234-3.895-0.234c-4.579,0-7.26,2.411-7.26,7.917v3.329h-4.696v4.993h4.696v13.728	C22.093,42.901,23.028,43,24,43c0.873,0,1.727-0.081,2.573-0.198V29.038z"></path>
    </symbol>

    <symbol id="vk" xmlns="http://www.w3.org/2000/svg" x="0px" y="0px" width="62" height="62"
        viewBox="0 0 32 32">
        <path
            d="M 9.082031 5 C 6.839844 5 5 6.839844 5 9.082031 L 5 22.917969 C 5 25.160156 6.839844 27 9.082031 27 L 22.917969 27 C 25.160156 27 27 25.160156 27 22.917969 L 27 9.082031 C 27 6.839844 25.160156 5 22.917969 5 Z M 9.082031 7 L 22.917969 7 C 24.078125 7 25 7.921875 25 9.082031 L 25 22.917969 C 25 24.078125 24.078125 25 22.917969 25 L 9.082031 25 C 7.921875 25 7 24.078125 7 22.917969 L 7 9.082031 C 7 7.921875 7.921875 7 9.082031 7 Z M 15.71875 12.230469 C 14.984375 12.222656 14.359375 12.230469 14.007813 12.402344 C 13.773438 12.515625 13.59375 12.773438 13.703125 12.785156 C 13.839844 12.804688 14.148438 12.871094 14.3125 13.09375 C 14.523438 13.378906 14.515625 14.023438 14.515625 14.023438 C 14.515625 14.023438 14.632813 15.796875 14.230469 16.019531 C 13.953125 16.171875 13.574219 15.863281 12.753906 14.453125 C 12.335938 13.726563 12.019531 12.925781 12.019531 12.925781 C 12.019531 12.925781 11.960938 12.777344 11.851563 12.699219 C 11.71875 12.601563 11.535156 12.570313 11.535156 12.570313 L 9.578125 12.582031 C 9.578125 12.582031 9.285156 12.59375 9.179688 12.71875 C 9.082031 12.835938 9.171875 13.066406 9.171875 13.066406 C 9.171875 13.066406 10.703125 16.648438 12.4375 18.453125 C 14.027344 20.109375 15.832031 20 15.832031 20 L 16.652344 20 C 16.652344 20 16.898438 19.972656 17.023438 19.839844 C 17.140625 19.714844 17.136719 19.480469 17.136719 19.480469 C 17.136719 19.480469 17.121094 18.382813 17.628906 18.21875 C 18.132813 18.0625 18.773438 19.28125 19.457031 19.75 C 19.976563 20.105469 20.371094 20.027344 20.371094 20.027344 L 22.199219 20 C 22.199219 20 23.152344 19.941406 22.699219 19.1875 C 22.664063 19.128906 22.4375 18.632813 21.34375 17.617188 C 20.195313 16.554688 20.347656 16.726563 21.730469 14.886719 C 22.570313 13.765625 22.90625 13.082031 22.800781 12.785156 C 22.699219 12.507813 22.082031 12.582031 22.082031 12.582031 L 20.023438 12.59375 C 20.023438 12.59375 19.871094 12.574219 19.757813 12.640625 C 19.648438 12.707031 19.578125 12.863281 19.578125 12.863281 C 19.578125 12.863281 19.25 13.730469 18.816406 14.46875 C 17.902344 16.023438 17.53125 16.109375 17.382813 16.011719 C 17.035156 15.785156 17.121094 15.105469 17.121094 14.625 C 17.121094 13.113281 17.351563 12.488281 16.675781 12.324219 C 16.453125 12.269531 16.289063 12.234375 15.71875 12.230469 Z"></path>
    </symbol>

    <symbol id="inst" xmlns="http://www.w3.org/2000/svg" x="0px" y="0px" width="62" height="62"
        viewBox="0 0 32 32">
        <path
            d="M 11.46875 5 C 7.917969 5 5 7.914063 5 11.46875 L 5 20.53125 C 5 24.082031 7.914063 27 11.46875 27 L 20.53125 27 C 24.082031 27 27 24.085938 27 20.53125 L 27 11.46875 C 27 7.917969 24.085938 5 20.53125 5 Z M 11.46875 7 L 20.53125 7 C 23.003906 7 25 8.996094 25 11.46875 L 25 20.53125 C 25 23.003906 23.003906 25 20.53125 25 L 11.46875 25 C 8.996094 25 7 23.003906 7 20.53125 L 7 11.46875 C 7 8.996094 8.996094 7 11.46875 7 Z M 21.90625 9.1875 C 21.402344 9.1875 21 9.589844 21 10.09375 C 21 10.597656 21.402344 11 21.90625 11 C 22.410156 11 22.8125 10.597656 22.8125 10.09375 C 22.8125 9.589844 22.410156 9.1875 21.90625 9.1875 Z M 16 10 C 12.699219 10 10 12.699219 10 16 C 10 19.300781 12.699219 22 16 22 C 19.300781 22 22 19.300781 22 16 C 22 12.699219 19.300781 10 16 10 Z M 16 12 C 18.222656 12 20 13.777344 20 16 C 20 18.222656 18.222656 20 16 20 C 13.777344 20 12 18.222656 12 16 C 12 13.777344 13.777344 12 16 12 Z"></path>
    </symbol> 


    <symbol id="arrow" xmlns="http://www.w3.org/2000/svg" width="50" height="50" fill="currentColor" class="bi bi-arrow-down-circle" viewBox="0 0 16 16">
        <path fill-rule="evenodd" d="M1 8a7 7 0 1 0 14 0A7 7 0 0 0 1 8m15 0A8 8 0 1 1 0 8a8 8 0 0 1 16 0M8.5 4.5a.5.5 0 0 0-1 0v5.793L5.354 8.146a.5.5 0 1 0-.708.708l3 3a.5.5 0 0 0 .708 0l3-3a.5.5 0 0 0-.708-.708L8.5 10.293z"/>
    </symbol>

    <!-- <symbol id="map" xmlns="http://www.w3.org/2000/svg" width="16" height="16" fill="currentColor"
        class="bi bi-geo-alt" viewBox="0 0 16 16">
        <path
            d="M12.166 8.94c-.524 1.062-1.234 2.12-1.96 3.07A32 32 0 0 1 8 14.58a32 32 0 0 1-2.206-2.57c-.726-.95-1.436-2.008-1.96-3.07C3.304 7.867 3 6.862 3 6a5 5 0 0 1 10 0c0 .862-.305 1.867-.834 2.94M8 16s6-5.686 6-10A6 6 0 0 0 2 6c0 4.314 6 10 6 10" />
        <path d="M8 8a2 2 0 1 1 0-4 2 2 0 0 1 0 4m0 1a3 3 0 1 0 0-6 3 3 0 0 0 0 6" />
    </symbol>

    <symbol id="phone" xmlns="http://www.w3.org/2000/svg" width="16" height="16" fill="currentColor"
        class="bi bi-telephone" viewBox="0 0 16 16">
        <path
            d="M3.654 1.328a.678.678 0 0 0-1.015-.063L1.605 2.3c-.483.484-.661 1.169-.45 1.77a17.6 17.6 0 0 0 4.168 6.608 17.6 17.6 0 0 0 6.608 4.168c.601.211 1.286.033 1.77-.45l1.034-1.034a.678.678 0 0 0-.063-1.015l-2.307-1.794a.68.68 0 0 0-.58-.122l-2.19.547a1.75 1.75 0 0 1-1.657-.459L5.482 8.062a1.75 1.75 0 0 1-.46-1.657l.548-2.19a.68.68 0 0 0-.122-.58zM1.884.511a1.745 1.745 0 0 1 2.612.163L6.29 2.98c.329.423.445.974.315 1.494l-.547 2.19a.68.68 0 0 0 .178.643l2.457 2.457a.68.68 0 0 0 .644.178l2.189-.547a1.75 1.75 0 0 1 1.494.315l2.306 1.794c.829.645.905 1.87.163 2.611l-1.034 1.034c-.74.74-1.846 1.065-2.877.702a18.6 18.6 0 0 1-7.01-4.42 18.6 18.6 0 0 1-4.42-7.009c-.362-1.03-.037-2.137.703-2.877z" />
    </symbol>

    <symbol id="email" xmlns="http://www.w3.org/2000/svg" width="16" height="16" fill="currentColor"
        class="bi bi-envelope" viewBox="0 0 16 16">
        <path
            d="M0 4a2 2 0 0 1 2-2h12a2 2 0 0 1 2 2v8a2 2 0 0 1-2 2H2a2 2 0 0 1-2-2zm2-1a1 1 0 0 0-1 1v.217l7 4.2 7-4.2V4a1 1 0 0 0-1-1zm13 2.383-4.708 2.825L15 11.105zm-.034 6.876-5.64-3.471L8 9.583l-1.326-.795-5.64 3.47A1 1 0 0 0 2 13h12a1 1 0 0 0 .966-.741M1 11.105l4.708-2.897L1 5.383z" />
    </symbol> -->

    <symbol id="map" width="16" height="16" viewBox="0 0 16 16" fill="none" xmlns="http://www.w3.org/2000/svg">
		<path
			d="M8 1.3335C5.05933 1.3335 2.66667 3.72616 2.66667 6.6635C2.64733 10.9602 7.79733 14.5228 8 14.6668C8 14.6668 13.3527 10.9602 13.3333 6.66683C13.3333 3.72616 10.9407 1.3335 8 1.3335ZM8 9.3335C6.52667 9.3335 5.33333 8.14016 5.33333 6.66683C5.33333 5.1935 6.52667 4.00016 8 4.00016C9.47333 4.00016 10.6667 5.1935 10.6667 6.66683C10.6667 8.14016 9.47333 9.3335 8 9.3335Z"
			fill="#E8C300" />
	</symbol>

	<symbol id="phone" width="10" height="11" viewBox="0 0 10 11" fill="none" xmlns="http://www.w3.org/2000/svg">
		<g clip-path="url(#clip0)">
			<path
				d="M9.86087 9.14688L8.45098 10.6853C8.24286 10.9201 7.967 10.9996 7.69834 11C6.51025 10.9608 5.38723 10.3189 4.46517 9.65969C2.95165 8.4485 1.56293 6.94668 0.691352 5.13179C0.357068 4.37075 -0.0351649 3.39971 0.00231006 2.55025C0.00565173 2.2307 0.0839351 1.91708 0.288527 1.7111L1.69841 0.161011C1.99118 -0.112916 2.2743 -0.0182063 2.46165 0.300867L3.59591 2.6668C3.71529 2.94709 3.64681 3.24741 3.46869 3.44769L2.94926 4.01877C2.91719 4.06709 2.89678 4.12209 2.89626 4.18195C3.09544 5.03007 3.69887 5.81177 4.23194 6.34974C4.76499 6.88771 5.33798 7.61655 6.08174 7.7891C6.17368 7.8173 6.28628 7.82721 6.35206 7.75996L6.95631 7.08398C7.16461 6.91032 7.46536 6.82543 7.68773 6.96743H7.69833L9.74425 8.29608C10.0446 8.50317 10.0759 8.90339 9.86087 9.14688Z"
				fill="#E8C300" />
		</g>
		<defs>
			<clipPath id="clip0">
				<rect width="10" height="11" fill="white" />
			</clipPath>
		</defs>
	</symbol>

	<symbol id="email" width="16" height="16" viewBox="0 0 16 16" fill="none" xmlns="http://www.w3.org/2000/svg">
		<path
			d="M14.3689 2.66679C14.3083 2.66055 14.2472 2.66055 14.1867 2.66679H1.74221C1.66245 2.66802 1.58322 2.67998 1.50665 2.70235L7.92887 9.0979L14.3689 2.66679Z"
			fill="#E8C300" />
		<path
			d="M15.0267 3.28418L8.55557 9.72862C8.38902 9.89418 8.16373 9.98711 7.9289 9.98711C7.69407 9.98711 7.46878 9.89418 7.30223 9.72862L0.888899 3.33307C0.869183 3.40553 0.85873 3.4802 0.857788 3.55529V12.4442C0.857788 12.6799 0.951439 12.906 1.11814 13.0727C1.28484 13.2394 1.51093 13.3331 1.74668 13.3331H14.1911C14.4269 13.3331 14.653 13.2394 14.8197 13.0727C14.9864 12.906 15.08 12.6799 15.08 12.4442V3.55529C15.0765 3.46269 15.0585 3.37122 15.0267 3.28418ZM2.35557 12.4442H1.73779V11.8086L4.9689 8.60418L5.59557 9.23085L2.35557 12.4442ZM14.1822 12.4442H13.56L10.32 9.23085L10.9467 8.60418L14.1778 11.8086L14.1822 12.4442Z"
			fill="#E8C300" />
	</symbol>



</svg>